<svg xmlns="http://www.w3.org/2000/svg" width="65" height="77.037" viewBox="0 0 65 77.037"><path d="M42.3,74.816a2.267,2.267,0,1,1,2.266,2.22A2.222,2.222,0,0,1,42.3,74.816Zm.821,0a1.446,1.446,0,1,0,1.446-1.474A1.476,1.476,0,0,0,43.12,74.816Zm-10.183,0A2.222,2.222,0,0,1,35.2,72.595a2.254,2.254,0,0,1,1.8.877l-.645.489a1.37,1.37,0,0,0-1.157-.618,1.474,1.474,0,0,0,0,2.947,1.423,1.423,0,0,0,1.433-1.154H35.2v-.747h2.273v.564a2.271,2.271,0,0,1-4.533-.135ZM16.68,76.249l.592-.536a1.731,1.731,0,0,0,1.25.577c.593-.006,1.009-.231,1.009-.638,0-.951-2.724-.034-2.724-1.773,0-.761.787-1.283,1.749-1.283a2.255,2.255,0,0,1,1.681.652l-.579.523a1.517,1.517,0,0,0-1.143-.509c-.645,0-.888.319-.888.577,0,.958,2.724,0,2.724,1.773,0,.89-.894,1.426-1.863,1.426A2.493,2.493,0,0,1,16.68,76.249ZM.162,72.684H1l1.029,2.608L3.06,72.684H3.9L2.031,77.037Zm60.621,4.265V72.684H62.7a2.137,2.137,0,1,1,0,4.265Zm.78-.748H62.7a1.389,1.389,0,1,0,0-2.77H61.562Zm-9.5.748V72.684h3.511v.747H52.845v.957H55.1v.747H52.845V76.2h2.731v.748Zm-25.686,0V73.431H25.141v-.747H28.4v.747H27.159v3.518Zm-15.161,0-.343-.8H9.133l-.35.8H7.95l2.085-4.374,2.023,4.374ZM9.437,75.441h1.136l-.565-1.324Zm44.4-9.906,1.8-1.632a5.262,5.262,0,0,0,3.8,1.756c1.8-.021,3.067-.7,3.067-1.942,0-2.892-8.283-.1-8.283-5.39,0-2.313,2.393-3.9,5.318-3.9a6.851,6.851,0,0,1,5.113,1.983L62.893,58a4.61,4.61,0,0,0-3.477-1.548c-1.964,0-2.7.971-2.7,1.755,0,2.913,8.283,0,8.283,5.39,0,2.706-2.721,4.338-5.665,4.338A7.576,7.576,0,0,1,53.833,65.535ZM0,65.535,1.8,63.9a5.263,5.263,0,0,0,3.8,1.756c1.8-.021,3.068-.7,3.068-1.942,0-2.892-8.283-.1-8.283-5.39,0-2.313,2.393-3.9,5.318-3.9a6.852,6.852,0,0,1,5.113,1.983L9.06,58a4.612,4.612,0,0,0-3.477-1.548c-1.963,0-2.7.971-2.7,1.755,0,2.913,8.283,0,8.283,5.39,0,2.706-2.721,4.338-5.666,4.338A7.577,7.577,0,0,1,0,65.535Zm38.443,2.127V54.691h2.373v10.7h8.3v2.272Zm-19.356,0V54.691H29.763v2.272h-8.3v2.913h6.851v2.271H21.459V65.39h8.3v2.272Zm34.746-20.1,1.8-1.631a5.262,5.262,0,0,0,3.8,1.755c1.8-.021,3.067-.7,3.067-1.941,0-2.891-8.283-.1-8.283-5.391,0-2.313,2.393-3.9,5.318-3.9a6.854,6.854,0,0,1,5.113,1.983l-1.759,1.591a4.612,4.612,0,0,0-3.477-1.55c-1.964,0-2.7.971-2.7,1.755,0,2.913,8.283,0,8.283,5.391,0,2.705-2.721,4.337-5.665,4.337A7.576,7.576,0,0,1,53.833,47.566ZM24.415,42.444l-3.089,7.518L16.091,36.723h2.5l2.9,7.683,2.925-6.981,2.965,6.981,2.863-7.683h2.515L27.38,49.962Zm14.029,7.249V36.723H49.119v2.272h-8.3v2.912h6.851v2.272H40.816v3.243h8.3v2.272Zm8.774-17.983-2.679-4.09H40.816v4.09H38.443V18.741h6.933A4.3,4.3,0,0,1,50,23.182a4.12,4.12,0,0,1-3.007,3.9L50.2,31.711Zm-6.4-6.361h4.377a2.183,2.183,0,1,0,0-4.337H40.816ZM.607,31.711V18.741H6.436c4.335,0,6.892,3.057,6.892,6.485a6.529,6.529,0,0,1-6.892,6.485ZM2.98,29.439H6.436a4.224,4.224,0,1,0,0-8.426H2.98Zm14.535-4.7a6.755,6.755,0,0,1,6.892-6.753,6.755,6.755,0,1,1,0,13.508A6.755,6.755,0,0,1,17.515,24.742Zm2.495,0a4.4,4.4,0,1,0,4.4-4.481A4.488,4.488,0,0,0,20.01,24.742ZM40.869,5.75v7.972H38.5V.379l8.283,8.385V.752h2.373V14.094ZM9.524,13.722,5.781,8.207H2.98v5.514H.607V.751H2.98V5.935H5.086L9.4.751h2.965L7.417,6.472l5.133,7.249ZM17.55,6.753A6.755,6.755,0,0,1,24.443,0a6.755,6.755,0,1,1,0,13.507A6.756,6.756,0,0,1,17.55,6.753Zm2.5,0a4.4,4.4,0,1,0,4.4-4.482A4.487,4.487,0,0,0,20.046,6.753Z" fill="#fff"/></svg>